<svg width="120" height="120" viewBox="0 0 120 120" fill="none" xmlns="http://www.w3.org/2000/svg">
<g clip-path="url(#clip0_323_2)">
<rect width="120" height="120" fill="#0000FF"/>
<path d="M38.5195 24.5H63.1195C69.0529 24.5 73.7195 26.1333 77.1195 29.4C80.5195 32.6 82.2195 36.9667 82.2195 42.5C82.2195 49.9 79.1195 54.8667 72.9195 57.4V57.6C76.3195 58.4 79.0862 60.3333 81.2195 63.4C83.4195 66.4667 84.5195 70.4333 84.5195 75.3C84.5195 81.8333 82.7195 86.9333 79.1195 90.6C75.5195 94.2 70.6862 96 64.6195 96H38.5195V24.5ZM64.0195 88.6C68.1529 88.6 71.1529 87.4 73.0195 85C74.8862 82.5333 75.8195 79.3 75.8195 75.3C75.8195 71.3 74.8529 68.1 72.9195 65.7C71.0529 63.3 68.5195 62.1 65.3195 62.1H46.9195V88.6H64.0195ZM63.1195 54.7C66.6529 54.7 69.2529 53.7 70.9195 51.7C72.5862 49.7 73.4195 46.9333 73.4195 43.4C73.4195 39.8667 72.5529 37.0667 70.8195 35C69.1529 32.9333 66.7195 31.9 63.5195 31.9H46.9195V54.7H63.1195Z" fill="white"/>
</g>
<defs>
<clipPath id="clip0_323_2">
<rect width="120" height="120" fill="white"/>
</clipPath>
</defs>
</svg>
